G04*
G04 #@! TF.GenerationSoftware,Altium Limited,Altium Designer,23.8.1 (32)*
G04*
G04 Layer_Color=16711935*
%FSLAX44Y44*%
%MOMM*%
G71*
G04*
G04 #@! TF.SameCoordinates,9B814528-EFA3-4082-B0EB-4300BE4F3D03*
G04*
G04*
G04 #@! TF.FilePolarity,Negative*
G04*
G01*
G75*
%ADD21C,1.5700*%
%ADD22R,1.5700X1.5700*%
%ADD23C,3.0000*%
%ADD24C,2.0000*%
%ADD25R,2.0000X2.0000*%
%ADD26C,1.4732*%
%ADD39R,0.4750X0.5000*%
%ADD41R,0.8549X0.9062*%
%ADD44C,1.6200*%
%ADD45R,1.2000X0.5000*%
G04:AMPARAMS|DCode=46|XSize=0.7532mm|YSize=1.0032mm|CornerRadius=0.1511mm|HoleSize=0mm|Usage=FLASHONLY|Rotation=90.000|XOffset=0mm|YOffset=0mm|HoleType=Round|Shape=RoundedRectangle|*
%AMROUNDEDRECTD46*
21,1,0.7532,0.7010,0,0,90.0*
21,1,0.4510,1.0032,0,0,90.0*
1,1,0.3022,0.3505,0.2255*
1,1,0.3022,0.3505,-0.2255*
1,1,0.3022,-0.3505,-0.2255*
1,1,0.3022,-0.3505,0.2255*
%
%ADD46ROUNDEDRECTD46*%
%ADD47R,1.4032X0.9032*%
%ADD48R,1.1532X1.1532*%
G36*
X451480Y1226540D02*
Y1221540D01*
X444980Y1215040D01*
X427980D01*
X421480Y1221540D01*
X405480D01*
Y1226540D01*
X421480D01*
X427980Y1233040D01*
X444980D01*
X451480Y1226540D01*
D02*
G37*
D21*
X672030Y1187930D02*
D03*
Y1217930D02*
D03*
Y1247930D02*
D03*
X702030Y1187930D02*
D03*
Y1217930D02*
D03*
D22*
Y1247930D02*
D03*
D23*
X745230Y1217930D02*
D03*
D24*
X385660Y1255430D02*
D03*
X623660Y1180430D02*
D03*
X553660D02*
D03*
X588660Y1255430D02*
D03*
D25*
X385660Y1180430D02*
D03*
D26*
X485140Y1240790D02*
D03*
X547370Y1205230D02*
D03*
X563880Y1217930D02*
D03*
X491490Y1168400D02*
D03*
X347980Y1230630D02*
D03*
Y1165860D02*
D03*
D39*
X525825Y1244600D02*
D03*
X515575D02*
D03*
D41*
X508093Y1184910D02*
D03*
X520606D02*
D03*
D44*
X433044Y1224040D02*
D03*
D45*
X411480Y1239040D02*
D03*
Y1209040D02*
D03*
D46*
X527100Y1224890D02*
D03*
Y1215390D02*
D03*
Y1205890D02*
D03*
X501600D02*
D03*
Y1224890D02*
D03*
D47*
X413300Y1179830D02*
D03*
X450300D02*
D03*
D48*
X386080Y1209160D02*
D03*
Y1224160D02*
D03*
M02*
