G04*
G04 #@! TF.GenerationSoftware,Altium Limited,Altium Designer,23.8.1 (32)*
G04*
G04 Layer_Color=32896*
%FSLAX44Y44*%
%MOMM*%
G71*
G04*
G04 #@! TF.SameCoordinates,9B814528-EFA3-4082-B0EB-4300BE4F3D03*
G04*
G04*
G04 #@! TF.FilePolarity,Positive*
G04*
G01*
G75*
%ADD12C,0.2000*%
G36*
X525221Y1242749D02*
X525096Y1242568D01*
X524971Y1242402D01*
X524853Y1242256D01*
X524749Y1242132D01*
X524659Y1242034D01*
X524618Y1241993D01*
X524583Y1241958D01*
X524555Y1241930D01*
X524534Y1241910D01*
X524528Y1241903D01*
X524521Y1241896D01*
X524451Y1241840D01*
X524368Y1241778D01*
X524285Y1241729D01*
X524202Y1241681D01*
X524125Y1241639D01*
X524063Y1241605D01*
X524021Y1241584D01*
X524014Y1241577D01*
X524007D01*
X524174Y1241549D01*
X524333Y1241514D01*
X524479Y1241473D01*
X524611Y1241431D01*
X524735Y1241383D01*
X524846Y1241334D01*
X524944Y1241285D01*
X525034Y1241237D01*
X525117Y1241188D01*
X525186Y1241140D01*
X525242Y1241098D01*
X525290Y1241064D01*
X525325Y1241029D01*
X525353Y1241008D01*
X525367Y1240994D01*
X525373Y1240987D01*
X525450Y1240897D01*
X525519Y1240807D01*
X525582Y1240710D01*
X525630Y1240613D01*
X525672Y1240516D01*
X525706Y1240419D01*
X525762Y1240238D01*
X525783Y1240155D01*
X525797Y1240079D01*
X525803Y1240010D01*
X525810Y1239947D01*
X525817Y1239906D01*
Y1239864D01*
Y1239843D01*
Y1239836D01*
X525803Y1239642D01*
X525776Y1239462D01*
X525734Y1239302D01*
X525686Y1239157D01*
X525658Y1239094D01*
X525630Y1239039D01*
X525609Y1238990D01*
X525588Y1238949D01*
X525575Y1238914D01*
X525561Y1238893D01*
X525547Y1238879D01*
Y1238872D01*
X525443Y1238720D01*
X525325Y1238595D01*
X525207Y1238484D01*
X525089Y1238401D01*
X524992Y1238338D01*
X524909Y1238297D01*
X524874Y1238283D01*
X524853Y1238269D01*
X524840Y1238262D01*
X524833D01*
X524743Y1238234D01*
X524652Y1238207D01*
X524444Y1238165D01*
X524229Y1238130D01*
X524021Y1238110D01*
X523917Y1238103D01*
X523827Y1238096D01*
X523751D01*
X523675Y1238089D01*
X520700D01*
Y1244489D01*
X521546D01*
Y1241646D01*
X522635D01*
X522732Y1241653D01*
X522815Y1241660D01*
X522884D01*
X522933Y1241667D01*
X522967Y1241674D01*
X522988Y1241681D01*
X522995D01*
X523071Y1241702D01*
X523141Y1241729D01*
X523203Y1241757D01*
X523265Y1241785D01*
X523314Y1241813D01*
X523349Y1241833D01*
X523376Y1241847D01*
X523383Y1241854D01*
X523453Y1241903D01*
X523529Y1241972D01*
X523605Y1242041D01*
X523668Y1242111D01*
X523730Y1242173D01*
X523772Y1242229D01*
X523799Y1242263D01*
X523813Y1242270D01*
Y1242277D01*
X523910Y1242402D01*
X524014Y1242541D01*
X524111Y1242686D01*
X524208Y1242832D01*
X524292Y1242957D01*
X524333Y1243012D01*
X524361Y1243061D01*
X524389Y1243102D01*
X524410Y1243130D01*
X524417Y1243151D01*
X524423Y1243158D01*
X525270Y1244489D01*
X526330D01*
X525221Y1242749D01*
D02*
G37*
G36*
X529035Y1244593D02*
X529194Y1244572D01*
X529347Y1244545D01*
X529492Y1244510D01*
X529631Y1244468D01*
X529756Y1244420D01*
X529874Y1244364D01*
X529978Y1244309D01*
X530075Y1244260D01*
X530158Y1244205D01*
X530234Y1244156D01*
X530290Y1244115D01*
X530338Y1244080D01*
X530373Y1244052D01*
X530394Y1244032D01*
X530401Y1244025D01*
X530512Y1243914D01*
X530602Y1243796D01*
X530685Y1243678D01*
X530754Y1243553D01*
X530817Y1243435D01*
X530865Y1243317D01*
X530907Y1243206D01*
X530942Y1243095D01*
X530969Y1242991D01*
X530983Y1242901D01*
X530997Y1242818D01*
X531011Y1242742D01*
Y1242686D01*
X531018Y1242638D01*
Y1242610D01*
Y1242603D01*
Y1242492D01*
X531004Y1242381D01*
X530969Y1242180D01*
X530914Y1242007D01*
X530886Y1241930D01*
X530858Y1241861D01*
X530831Y1241792D01*
X530803Y1241736D01*
X530775Y1241688D01*
X530747Y1241653D01*
X530727Y1241618D01*
X530713Y1241598D01*
X530706Y1241584D01*
X530699Y1241577D01*
X530574Y1241431D01*
X530429Y1241313D01*
X530283Y1241223D01*
X530144Y1241147D01*
X530013Y1241091D01*
X529957Y1241071D01*
X529915Y1241057D01*
X529874Y1241043D01*
X529846Y1241036D01*
X529825Y1241029D01*
X529818D01*
X529971Y1240946D01*
X530103Y1240863D01*
X530220Y1240772D01*
X530311Y1240682D01*
X530387Y1240606D01*
X530435Y1240544D01*
X530470Y1240502D01*
X530477Y1240495D01*
Y1240488D01*
X530553Y1240356D01*
X530609Y1240225D01*
X530650Y1240100D01*
X530678Y1239982D01*
X530692Y1239885D01*
X530706Y1239802D01*
Y1239774D01*
Y1239753D01*
Y1239739D01*
Y1239732D01*
X530699Y1239573D01*
X530671Y1239420D01*
X530630Y1239281D01*
X530588Y1239157D01*
X530546Y1239053D01*
X530526Y1239011D01*
X530505Y1238976D01*
X530491Y1238949D01*
X530477Y1238921D01*
X530470Y1238914D01*
Y1238907D01*
X530373Y1238768D01*
X530262Y1238651D01*
X530151Y1238547D01*
X530040Y1238456D01*
X529943Y1238387D01*
X529867Y1238338D01*
X529832Y1238318D01*
X529811Y1238304D01*
X529798Y1238297D01*
X529791D01*
X529624Y1238221D01*
X529458Y1238165D01*
X529291Y1238123D01*
X529146Y1238096D01*
X529014Y1238082D01*
X528965Y1238075D01*
X528917Y1238068D01*
X528827D01*
X528688Y1238075D01*
X528556Y1238089D01*
X528432Y1238110D01*
X528307Y1238137D01*
X528196Y1238172D01*
X528092Y1238207D01*
X527995Y1238248D01*
X527911Y1238283D01*
X527828Y1238325D01*
X527759Y1238366D01*
X527703Y1238401D01*
X527648Y1238436D01*
X527613Y1238463D01*
X527579Y1238484D01*
X527565Y1238498D01*
X527558Y1238505D01*
X527468Y1238588D01*
X527384Y1238685D01*
X527308Y1238782D01*
X527239Y1238879D01*
X527176Y1238983D01*
X527128Y1239081D01*
X527038Y1239281D01*
X527003Y1239372D01*
X526975Y1239455D01*
X526954Y1239531D01*
X526934Y1239594D01*
X526920Y1239649D01*
X526913Y1239691D01*
X526906Y1239718D01*
Y1239725D01*
X527690Y1239864D01*
X527731Y1239663D01*
X527787Y1239490D01*
X527849Y1239337D01*
X527918Y1239219D01*
X527974Y1239122D01*
X528029Y1239060D01*
X528064Y1239018D01*
X528078Y1239004D01*
X528203Y1238907D01*
X528327Y1238838D01*
X528459Y1238782D01*
X528577Y1238748D01*
X528688Y1238727D01*
X528730Y1238720D01*
X528771D01*
X528806Y1238713D01*
X528848D01*
X529014Y1238727D01*
X529160Y1238755D01*
X529291Y1238803D01*
X529402Y1238852D01*
X529486Y1238907D01*
X529548Y1238956D01*
X529590Y1238983D01*
X529603Y1238997D01*
X529659Y1239053D01*
X529700Y1239108D01*
X529777Y1239233D01*
X529832Y1239351D01*
X529867Y1239462D01*
X529888Y1239566D01*
X529895Y1239642D01*
X529902Y1239677D01*
Y1239698D01*
Y1239712D01*
Y1239718D01*
X529895Y1239816D01*
X529881Y1239906D01*
X529867Y1239996D01*
X529839Y1240072D01*
X529770Y1240211D01*
X529700Y1240322D01*
X529624Y1240412D01*
X529555Y1240474D01*
X529527Y1240495D01*
X529513Y1240509D01*
X529499Y1240523D01*
X529492D01*
X529340Y1240613D01*
X529180Y1240675D01*
X529028Y1240724D01*
X528889Y1240752D01*
X528771Y1240772D01*
X528723Y1240779D01*
X528674D01*
X528639Y1240786D01*
X528549D01*
X528508Y1240779D01*
X528473Y1240772D01*
X528459D01*
X528376Y1241459D01*
X528494Y1241431D01*
X528605Y1241410D01*
X528695Y1241396D01*
X528778Y1241383D01*
X528841D01*
X528889Y1241376D01*
X528931D01*
X529028Y1241383D01*
X529125Y1241389D01*
X529298Y1241431D01*
X529451Y1241487D01*
X529582Y1241549D01*
X529687Y1241618D01*
X529728Y1241646D01*
X529763Y1241674D01*
X529791Y1241695D01*
X529811Y1241715D01*
X529818Y1241722D01*
X529825Y1241729D01*
X529888Y1241799D01*
X529943Y1241868D01*
X529992Y1241937D01*
X530033Y1242014D01*
X530096Y1242159D01*
X530144Y1242305D01*
X530165Y1242430D01*
X530172Y1242478D01*
X530179Y1242527D01*
X530186Y1242561D01*
Y1242596D01*
Y1242610D01*
Y1242617D01*
X530179Y1242721D01*
X530172Y1242818D01*
X530123Y1243005D01*
X530068Y1243165D01*
X529999Y1243303D01*
X529957Y1243366D01*
X529922Y1243414D01*
X529895Y1243463D01*
X529867Y1243497D01*
X529839Y1243525D01*
X529818Y1243546D01*
X529811Y1243560D01*
X529804Y1243567D01*
X529728Y1243636D01*
X529652Y1243692D01*
X529576Y1243740D01*
X529499Y1243789D01*
X529340Y1243858D01*
X529187Y1243900D01*
X529062Y1243928D01*
X529000Y1243934D01*
X528959Y1243941D01*
X528917Y1243948D01*
X528861D01*
X528695Y1243934D01*
X528535Y1243900D01*
X528404Y1243858D01*
X528286Y1243803D01*
X528189Y1243747D01*
X528119Y1243706D01*
X528099Y1243685D01*
X528078Y1243671D01*
X528071Y1243657D01*
X528064D01*
X528008Y1243595D01*
X527953Y1243532D01*
X527856Y1243387D01*
X527780Y1243227D01*
X527717Y1243068D01*
X527669Y1242922D01*
X527655Y1242860D01*
X527641Y1242804D01*
X527627Y1242756D01*
X527620Y1242721D01*
X527613Y1242700D01*
Y1242693D01*
X526830Y1242797D01*
X526851Y1242943D01*
X526878Y1243082D01*
X526920Y1243213D01*
X526961Y1243338D01*
X527010Y1243456D01*
X527065Y1243560D01*
X527121Y1243664D01*
X527176Y1243747D01*
X527232Y1243830D01*
X527280Y1243900D01*
X527329Y1243962D01*
X527370Y1244011D01*
X527412Y1244052D01*
X527440Y1244080D01*
X527454Y1244094D01*
X527461Y1244101D01*
X527565Y1244191D01*
X527683Y1244267D01*
X527794Y1244330D01*
X527911Y1244392D01*
X528029Y1244441D01*
X528147Y1244475D01*
X528258Y1244510D01*
X528369Y1244538D01*
X528473Y1244558D01*
X528563Y1244572D01*
X528646Y1244586D01*
X528723Y1244593D01*
X528778D01*
X528827Y1244600D01*
X528861D01*
X529035Y1244593D01*
D02*
G37*
G36*
X506272Y1191324D02*
X506431Y1191310D01*
X506577Y1191289D01*
X506716Y1191255D01*
X506847Y1191220D01*
X506965Y1191178D01*
X507076Y1191137D01*
X507173Y1191095D01*
X507263Y1191047D01*
X507340Y1191005D01*
X507409Y1190963D01*
X507464Y1190929D01*
X507506Y1190894D01*
X507534Y1190873D01*
X507555Y1190859D01*
X507561Y1190853D01*
X507659Y1190762D01*
X507742Y1190658D01*
X507818Y1190554D01*
X507887Y1190436D01*
X507943Y1190325D01*
X507998Y1190214D01*
X508040Y1190097D01*
X508075Y1189993D01*
X508109Y1189889D01*
X508130Y1189791D01*
X508151Y1189701D01*
X508165Y1189625D01*
X508172Y1189563D01*
X508179Y1189521D01*
X508186Y1189493D01*
Y1189480D01*
X507381Y1189396D01*
X507374Y1189507D01*
X507367Y1189611D01*
X507326Y1189791D01*
X507270Y1189958D01*
X507243Y1190027D01*
X507208Y1190090D01*
X507180Y1190145D01*
X507146Y1190194D01*
X507118Y1190235D01*
X507097Y1190270D01*
X507069Y1190298D01*
X507055Y1190319D01*
X507048Y1190325D01*
X507042Y1190332D01*
X506972Y1190395D01*
X506903Y1190450D01*
X506827Y1190492D01*
X506750Y1190534D01*
X506598Y1190596D01*
X506452Y1190638D01*
X506327Y1190658D01*
X506272Y1190672D01*
X506223D01*
X506182Y1190679D01*
X506029D01*
X505932Y1190665D01*
X505759Y1190631D01*
X505613Y1190575D01*
X505481Y1190520D01*
X505384Y1190457D01*
X505343Y1190430D01*
X505308Y1190402D01*
X505280Y1190381D01*
X505259Y1190367D01*
X505252Y1190360D01*
X505246Y1190353D01*
X505183Y1190291D01*
X505135Y1190228D01*
X505086Y1190166D01*
X505051Y1190097D01*
X504989Y1189965D01*
X504947Y1189840D01*
X504926Y1189736D01*
X504913Y1189688D01*
Y1189646D01*
X504906Y1189618D01*
Y1189591D01*
Y1189577D01*
Y1189570D01*
X504913Y1189486D01*
X504920Y1189403D01*
X504961Y1189237D01*
X505024Y1189077D01*
X505093Y1188932D01*
X505162Y1188807D01*
X505190Y1188758D01*
X505225Y1188710D01*
X505246Y1188675D01*
X505266Y1188647D01*
X505273Y1188633D01*
X505280Y1188627D01*
X505356Y1188530D01*
X505447Y1188426D01*
X505551Y1188315D01*
X505662Y1188204D01*
X505890Y1187975D01*
X506126Y1187760D01*
X506237Y1187656D01*
X506348Y1187566D01*
X506445Y1187483D01*
X506528Y1187413D01*
X506598Y1187351D01*
X506646Y1187309D01*
X506681Y1187274D01*
X506695Y1187268D01*
X506820Y1187163D01*
X506931Y1187066D01*
X507042Y1186976D01*
X507139Y1186886D01*
X507236Y1186803D01*
X507319Y1186720D01*
X507395Y1186650D01*
X507464Y1186581D01*
X507527Y1186519D01*
X507575Y1186463D01*
X507624Y1186415D01*
X507659Y1186380D01*
X507693Y1186345D01*
X507714Y1186324D01*
X507721Y1186311D01*
X507728Y1186304D01*
X507853Y1186151D01*
X507957Y1185999D01*
X508047Y1185853D01*
X508116Y1185721D01*
X508172Y1185610D01*
X508193Y1185562D01*
X508213Y1185527D01*
X508227Y1185492D01*
X508234Y1185471D01*
X508241Y1185458D01*
Y1185451D01*
X508276Y1185354D01*
X508297Y1185257D01*
X508317Y1185166D01*
X508324Y1185083D01*
X508331Y1185014D01*
Y1184958D01*
Y1184924D01*
Y1184910D01*
X504094D01*
Y1185666D01*
X507249D01*
X507139Y1185818D01*
X507083Y1185888D01*
X507028Y1185950D01*
X506979Y1186005D01*
X506944Y1186047D01*
X506917Y1186075D01*
X506910Y1186082D01*
X506868Y1186123D01*
X506813Y1186179D01*
X506750Y1186234D01*
X506681Y1186297D01*
X506535Y1186435D01*
X506383Y1186567D01*
X506237Y1186692D01*
X506175Y1186747D01*
X506112Y1186796D01*
X506071Y1186838D01*
X506029Y1186865D01*
X506008Y1186886D01*
X506001Y1186893D01*
X505849Y1187025D01*
X505703Y1187150D01*
X505571Y1187261D01*
X505453Y1187372D01*
X505343Y1187469D01*
X505246Y1187566D01*
X505155Y1187649D01*
X505072Y1187725D01*
X505003Y1187788D01*
X504947Y1187850D01*
X504899Y1187898D01*
X504857Y1187940D01*
X504829Y1187975D01*
X504802Y1187996D01*
X504795Y1188009D01*
X504788Y1188016D01*
X504656Y1188169D01*
X504552Y1188308D01*
X504462Y1188439D01*
X504386Y1188557D01*
X504330Y1188654D01*
X504289Y1188731D01*
X504275Y1188758D01*
X504268Y1188779D01*
X504261Y1188786D01*
Y1188793D01*
X504205Y1188932D01*
X504171Y1189070D01*
X504143Y1189195D01*
X504122Y1189313D01*
X504108Y1189410D01*
X504101Y1189486D01*
Y1189514D01*
Y1189535D01*
Y1189542D01*
Y1189549D01*
X504108Y1189688D01*
X504122Y1189819D01*
X504150Y1189944D01*
X504185Y1190069D01*
X504226Y1190180D01*
X504275Y1190284D01*
X504323Y1190381D01*
X504372Y1190464D01*
X504420Y1190547D01*
X504469Y1190617D01*
X504517Y1190679D01*
X504559Y1190728D01*
X504594Y1190762D01*
X504621Y1190797D01*
X504635Y1190811D01*
X504642Y1190818D01*
X504746Y1190908D01*
X504857Y1190984D01*
X504975Y1191054D01*
X505100Y1191116D01*
X505218Y1191164D01*
X505343Y1191206D01*
X505461Y1191241D01*
X505578Y1191268D01*
X505682Y1191289D01*
X505786Y1191303D01*
X505877Y1191317D01*
X505953Y1191324D01*
X506015Y1191331D01*
X506105D01*
X506272Y1191324D01*
D02*
G37*
G36*
X514350Y1184910D02*
X513504D01*
Y1187753D01*
X512416D01*
X512318Y1187746D01*
X512235Y1187739D01*
X512166D01*
X512117Y1187732D01*
X512083Y1187725D01*
X512062Y1187718D01*
X512055D01*
X511979Y1187697D01*
X511909Y1187670D01*
X511847Y1187642D01*
X511785Y1187614D01*
X511736Y1187587D01*
X511701Y1187566D01*
X511674Y1187552D01*
X511667Y1187545D01*
X511597Y1187496D01*
X511521Y1187427D01*
X511445Y1187358D01*
X511382Y1187288D01*
X511320Y1187226D01*
X511278Y1187170D01*
X511250Y1187136D01*
X511237Y1187129D01*
Y1187122D01*
X511140Y1186997D01*
X511036Y1186858D01*
X510938Y1186713D01*
X510841Y1186567D01*
X510758Y1186442D01*
X510717Y1186387D01*
X510689Y1186338D01*
X510661Y1186297D01*
X510640Y1186269D01*
X510633Y1186248D01*
X510626Y1186241D01*
X509781Y1184910D01*
X508720D01*
X509829Y1186650D01*
X509954Y1186831D01*
X510079Y1186997D01*
X510196Y1187143D01*
X510301Y1187268D01*
X510391Y1187365D01*
X510432Y1187406D01*
X510467Y1187441D01*
X510495Y1187469D01*
X510516Y1187489D01*
X510522Y1187496D01*
X510529Y1187503D01*
X510599Y1187559D01*
X510682Y1187621D01*
X510765Y1187670D01*
X510848Y1187718D01*
X510925Y1187760D01*
X510987Y1187794D01*
X511029Y1187815D01*
X511036Y1187822D01*
X511043D01*
X510876Y1187850D01*
X510717Y1187885D01*
X510571Y1187926D01*
X510439Y1187968D01*
X510314Y1188016D01*
X510204Y1188065D01*
X510106Y1188113D01*
X510016Y1188162D01*
X509933Y1188211D01*
X509864Y1188259D01*
X509808Y1188301D01*
X509760Y1188335D01*
X509725Y1188370D01*
X509697Y1188391D01*
X509683Y1188405D01*
X509677Y1188412D01*
X509600Y1188502D01*
X509531Y1188592D01*
X509468Y1188689D01*
X509420Y1188786D01*
X509378Y1188883D01*
X509344Y1188980D01*
X509288Y1189161D01*
X509267Y1189244D01*
X509254Y1189320D01*
X509247Y1189389D01*
X509240Y1189452D01*
X509233Y1189493D01*
Y1189535D01*
Y1189556D01*
Y1189563D01*
X509247Y1189757D01*
X509274Y1189937D01*
X509316Y1190097D01*
X509364Y1190242D01*
X509392Y1190305D01*
X509420Y1190360D01*
X509441Y1190409D01*
X509462Y1190450D01*
X509475Y1190485D01*
X509489Y1190506D01*
X509503Y1190520D01*
Y1190527D01*
X509607Y1190679D01*
X509725Y1190804D01*
X509843Y1190915D01*
X509961Y1190998D01*
X510058Y1191060D01*
X510141Y1191102D01*
X510176Y1191116D01*
X510196Y1191130D01*
X510210Y1191137D01*
X510217D01*
X510308Y1191164D01*
X510398Y1191192D01*
X510606Y1191234D01*
X510821Y1191268D01*
X511029Y1191289D01*
X511133Y1191296D01*
X511223Y1191303D01*
X511299D01*
X511375Y1191310D01*
X514350D01*
Y1184910D01*
D02*
G37*
G36*
X434728Y1223458D02*
X434540Y1223381D01*
X434346Y1223284D01*
X434159Y1223187D01*
X433993Y1223090D01*
X433916Y1223042D01*
X433847Y1223000D01*
X433784Y1222958D01*
X433736Y1222931D01*
X433687Y1222903D01*
X433660Y1222882D01*
X433639Y1222868D01*
X433632Y1222861D01*
X433805Y1222681D01*
X433951Y1222494D01*
X434076Y1222314D01*
X434180Y1222140D01*
X434221Y1222064D01*
X434256Y1221988D01*
X434291Y1221925D01*
X434311Y1221870D01*
X434332Y1221828D01*
X434346Y1221793D01*
X434360Y1221773D01*
Y1221766D01*
X434443Y1221523D01*
X434499Y1221280D01*
X434540Y1221038D01*
X434561Y1220927D01*
X434575Y1220816D01*
X434582Y1220719D01*
X434589Y1220629D01*
X434596Y1220545D01*
Y1220476D01*
X434603Y1220421D01*
Y1220379D01*
Y1220351D01*
Y1220344D01*
X434596Y1220171D01*
X434589Y1219997D01*
X434568Y1219831D01*
X434547Y1219678D01*
X434520Y1219526D01*
X434485Y1219387D01*
X434450Y1219256D01*
X434416Y1219138D01*
X434381Y1219027D01*
X434346Y1218930D01*
X434319Y1218839D01*
X434284Y1218770D01*
X434263Y1218715D01*
X434242Y1218673D01*
X434235Y1218645D01*
X434228Y1218638D01*
X434152Y1218500D01*
X434076Y1218368D01*
X433986Y1218250D01*
X433902Y1218132D01*
X433812Y1218028D01*
X433722Y1217931D01*
X433632Y1217848D01*
X433542Y1217765D01*
X433459Y1217695D01*
X433382Y1217633D01*
X433320Y1217577D01*
X433257Y1217536D01*
X433209Y1217501D01*
X433174Y1217480D01*
X433147Y1217467D01*
X433140Y1217460D01*
X433001Y1217383D01*
X432869Y1217321D01*
X432730Y1217265D01*
X432592Y1217217D01*
X432453Y1217175D01*
X432321Y1217141D01*
X432197Y1217113D01*
X432072Y1217092D01*
X431961Y1217071D01*
X431864Y1217057D01*
X431774Y1217050D01*
X431690Y1217044D01*
X431628Y1217037D01*
X431545D01*
X431385Y1217044D01*
X431226Y1217057D01*
X431073Y1217071D01*
X430928Y1217099D01*
X430782Y1217134D01*
X430650Y1217168D01*
X430532Y1217203D01*
X430415Y1217238D01*
X430317Y1217279D01*
X430220Y1217314D01*
X430144Y1217349D01*
X430075Y1217383D01*
X430019Y1217411D01*
X429985Y1217425D01*
X429957Y1217439D01*
X429950Y1217446D01*
X429818Y1217522D01*
X429700Y1217612D01*
X429589Y1217702D01*
X429478Y1217799D01*
X429381Y1217896D01*
X429298Y1217993D01*
X429215Y1218091D01*
X429139Y1218188D01*
X429076Y1218278D01*
X429021Y1218354D01*
X428972Y1218430D01*
X428931Y1218500D01*
X428903Y1218548D01*
X428882Y1218590D01*
X428868Y1218618D01*
X428861Y1218624D01*
X428792Y1218770D01*
X428736Y1218923D01*
X428688Y1219075D01*
X428639Y1219221D01*
X428570Y1219512D01*
X428549Y1219651D01*
X428528Y1219776D01*
X428515Y1219900D01*
X428501Y1220011D01*
X428494Y1220108D01*
X428487Y1220192D01*
X428480Y1220261D01*
Y1220310D01*
Y1220337D01*
Y1220351D01*
X428487Y1220525D01*
X428494Y1220698D01*
X428515Y1220864D01*
X428542Y1221017D01*
X428570Y1221169D01*
X428598Y1221308D01*
X428632Y1221440D01*
X428674Y1221565D01*
X428709Y1221676D01*
X428743Y1221773D01*
X428771Y1221856D01*
X428799Y1221932D01*
X428827Y1221988D01*
X428847Y1222029D01*
X428854Y1222057D01*
X428861Y1222064D01*
X428937Y1222203D01*
X429021Y1222334D01*
X429104Y1222452D01*
X429194Y1222563D01*
X429284Y1222667D01*
X429374Y1222764D01*
X429464Y1222854D01*
X429548Y1222931D01*
X429631Y1223000D01*
X429707Y1223062D01*
X429777Y1223118D01*
X429832Y1223159D01*
X429881Y1223194D01*
X429922Y1223215D01*
X429943Y1223229D01*
X429950Y1223236D01*
X430082Y1223312D01*
X430220Y1223374D01*
X430359Y1223430D01*
X430498Y1223478D01*
X430630Y1223513D01*
X430761Y1223548D01*
X430886Y1223576D01*
X431004Y1223596D01*
X431115Y1223617D01*
X431212Y1223631D01*
X431302Y1223638D01*
X431378Y1223645D01*
X431441Y1223652D01*
X431524D01*
X431684Y1223645D01*
X431836Y1223638D01*
X432134Y1223589D01*
X432273Y1223562D01*
X432398Y1223527D01*
X432523Y1223492D01*
X432634Y1223458D01*
X432738Y1223423D01*
X432828Y1223388D01*
X432904Y1223354D01*
X432973Y1223326D01*
X433029Y1223298D01*
X433063Y1223277D01*
X433091Y1223270D01*
X433098Y1223263D01*
X433355Y1223451D01*
X433604Y1223610D01*
X433833Y1223742D01*
X433944Y1223797D01*
X434041Y1223846D01*
X434131Y1223895D01*
X434214Y1223936D01*
X434291Y1223964D01*
X434353Y1223992D01*
X434402Y1224012D01*
X434443Y1224026D01*
X434464Y1224040D01*
X434471D01*
X434728Y1223458D01*
D02*
G37*
G36*
X438382Y1217127D02*
X437876D01*
X437786Y1217286D01*
X437682Y1217439D01*
X437564Y1217584D01*
X437446Y1217709D01*
X437342Y1217827D01*
X437293Y1217869D01*
X437259Y1217910D01*
X437224Y1217945D01*
X437196Y1217966D01*
X437182Y1217980D01*
X437175Y1217987D01*
X436988Y1218146D01*
X436787Y1218285D01*
X436593Y1218417D01*
X436413Y1218527D01*
X436336Y1218569D01*
X436260Y1218611D01*
X436191Y1218652D01*
X436135Y1218680D01*
X436087Y1218701D01*
X436052Y1218722D01*
X436031Y1218728D01*
X436024Y1218736D01*
Y1219491D01*
X436163Y1219436D01*
X436309Y1219373D01*
X436447Y1219304D01*
X436572Y1219242D01*
X436683Y1219179D01*
X436732Y1219158D01*
X436773Y1219131D01*
X436808Y1219117D01*
X436829Y1219103D01*
X436842Y1219089D01*
X436849D01*
X437016Y1218985D01*
X437161Y1218888D01*
X437293Y1218798D01*
X437397Y1218715D01*
X437487Y1218645D01*
X437550Y1218597D01*
X437584Y1218562D01*
X437598Y1218548D01*
Y1223548D01*
X438382D01*
Y1217127D01*
D02*
G37*
%LPC*%
G36*
X523460Y1240911D02*
X521546D01*
Y1238796D01*
X523702D01*
X523820Y1238810D01*
X523931Y1238824D01*
X524035Y1238845D01*
X524125Y1238866D01*
X524208Y1238893D01*
X524285Y1238914D01*
X524354Y1238942D01*
X524417Y1238969D01*
X524465Y1238997D01*
X524514Y1239025D01*
X524548Y1239046D01*
X524576Y1239067D01*
X524597Y1239081D01*
X524604Y1239087D01*
X524611Y1239094D01*
X524666Y1239150D01*
X524722Y1239212D01*
X524805Y1239330D01*
X524860Y1239455D01*
X524902Y1239573D01*
X524930Y1239677D01*
X524937Y1239725D01*
Y1239760D01*
X524944Y1239795D01*
Y1239816D01*
Y1239829D01*
Y1239836D01*
X524937Y1239947D01*
X524916Y1240058D01*
X524888Y1240155D01*
X524860Y1240238D01*
X524826Y1240315D01*
X524798Y1240363D01*
X524777Y1240398D01*
X524770Y1240412D01*
X524701Y1240502D01*
X524618Y1240585D01*
X524534Y1240648D01*
X524458Y1240703D01*
X524382Y1240745D01*
X524326Y1240772D01*
X524285Y1240786D01*
X524278Y1240793D01*
X524271D01*
X524139Y1240835D01*
X523994Y1240863D01*
X523841Y1240883D01*
X523695Y1240897D01*
X523564Y1240904D01*
X523508D01*
X523460Y1240911D01*
D02*
G37*
G36*
X513504Y1190603D02*
X511348D01*
X511230Y1190589D01*
X511119Y1190575D01*
X511015Y1190554D01*
X510925Y1190534D01*
X510841Y1190506D01*
X510765Y1190485D01*
X510696Y1190457D01*
X510633Y1190430D01*
X510585Y1190402D01*
X510536Y1190374D01*
X510502Y1190353D01*
X510474Y1190332D01*
X510453Y1190319D01*
X510446Y1190312D01*
X510439Y1190305D01*
X510384Y1190249D01*
X510328Y1190187D01*
X510245Y1190069D01*
X510190Y1189944D01*
X510148Y1189826D01*
X510120Y1189722D01*
X510113Y1189674D01*
Y1189639D01*
X510106Y1189604D01*
Y1189584D01*
Y1189570D01*
Y1189563D01*
X510113Y1189452D01*
X510134Y1189341D01*
X510162Y1189244D01*
X510190Y1189161D01*
X510224Y1189084D01*
X510252Y1189036D01*
X510273Y1189001D01*
X510280Y1188987D01*
X510349Y1188897D01*
X510432Y1188814D01*
X510516Y1188751D01*
X510592Y1188696D01*
X510668Y1188654D01*
X510723Y1188627D01*
X510765Y1188613D01*
X510772Y1188606D01*
X510779D01*
X510911Y1188564D01*
X511056Y1188537D01*
X511209Y1188516D01*
X511355Y1188502D01*
X511486Y1188495D01*
X511542D01*
X511590Y1188488D01*
X513504D01*
Y1190603D01*
D02*
G37*
G36*
X431621Y1222931D02*
X431545D01*
X431371Y1222924D01*
X431205Y1222903D01*
X431045Y1222868D01*
X430893Y1222827D01*
X430754Y1222778D01*
X430630Y1222723D01*
X430505Y1222660D01*
X430401Y1222598D01*
X430304Y1222535D01*
X430213Y1222473D01*
X430144Y1222418D01*
X430082Y1222369D01*
X430033Y1222327D01*
X429999Y1222293D01*
X429978Y1222272D01*
X429971Y1222265D01*
X429860Y1222133D01*
X429770Y1221994D01*
X429686Y1221842D01*
X429617Y1221683D01*
X429555Y1221523D01*
X429506Y1221364D01*
X429464Y1221211D01*
X429430Y1221058D01*
X429402Y1220913D01*
X429388Y1220781D01*
X429374Y1220663D01*
X429361Y1220559D01*
Y1220469D01*
X429354Y1220407D01*
Y1220365D01*
Y1220351D01*
X429361Y1220115D01*
X429381Y1219900D01*
X429409Y1219692D01*
X429451Y1219505D01*
X429499Y1219332D01*
X429555Y1219172D01*
X429610Y1219027D01*
X429666Y1218902D01*
X429721Y1218784D01*
X429784Y1218687D01*
X429832Y1218604D01*
X429881Y1218534D01*
X429922Y1218486D01*
X429950Y1218444D01*
X429971Y1218423D01*
X429978Y1218417D01*
X430095Y1218299D01*
X430227Y1218202D01*
X430352Y1218111D01*
X430484Y1218042D01*
X430616Y1217980D01*
X430747Y1217924D01*
X430872Y1217883D01*
X430997Y1217848D01*
X431108Y1217820D01*
X431212Y1217799D01*
X431309Y1217785D01*
X431385Y1217772D01*
X431455D01*
X431503Y1217765D01*
X431663D01*
X431781Y1217778D01*
X431996Y1217813D01*
X432190Y1217869D01*
X432273Y1217896D01*
X432356Y1217924D01*
X432432Y1217959D01*
X432495Y1217987D01*
X432550Y1218014D01*
X432599Y1218042D01*
X432640Y1218063D01*
X432668Y1218077D01*
X432682Y1218084D01*
X432689Y1218091D01*
X432869Y1218222D01*
X433022Y1218368D01*
X433153Y1218514D01*
X433265Y1218659D01*
X433348Y1218791D01*
X433382Y1218846D01*
X433410Y1218895D01*
X433431Y1218937D01*
X433445Y1218964D01*
X433459Y1218985D01*
Y1218992D01*
X433549Y1219214D01*
X433618Y1219443D01*
X433667Y1219672D01*
X433694Y1219886D01*
X433708Y1219977D01*
X433715Y1220067D01*
X433722Y1220143D01*
Y1220212D01*
X433729Y1220268D01*
Y1220310D01*
Y1220337D01*
Y1220344D01*
X433722Y1220594D01*
X433694Y1220823D01*
X433660Y1221038D01*
X433611Y1221239D01*
X433556Y1221426D01*
X433493Y1221592D01*
X433424Y1221745D01*
X433355Y1221877D01*
X433285Y1222001D01*
X433216Y1222105D01*
X433153Y1222189D01*
X433098Y1222265D01*
X433050Y1222320D01*
X433015Y1222355D01*
X432987Y1222383D01*
X432980Y1222390D01*
X432793Y1222251D01*
X432592Y1222126D01*
X432384Y1222022D01*
X432197Y1221932D01*
X432107Y1221898D01*
X432023Y1221870D01*
X431954Y1221842D01*
X431892Y1221821D01*
X431836Y1221800D01*
X431801Y1221786D01*
X431774Y1221780D01*
X431767D01*
X431566Y1222397D01*
X431725Y1222445D01*
X431885Y1222501D01*
X432023Y1222563D01*
X432148Y1222619D01*
X432252Y1222674D01*
X432301Y1222702D01*
X432335Y1222723D01*
X432363Y1222737D01*
X432384Y1222750D01*
X432398Y1222764D01*
X432405D01*
X432252Y1222820D01*
X432099Y1222861D01*
X431954Y1222889D01*
X431822Y1222910D01*
X431711Y1222924D01*
X431663D01*
X431621Y1222931D01*
D02*
G37*
%LPD*%
D12*
X512200Y1240850D02*
Y1248350D01*
X529200D01*
Y1240850D02*
Y1248350D01*
X512200Y1240850D02*
X529200D01*
X525881Y1178910D02*
Y1190910D01*
X502819Y1178910D02*
X525881D01*
X502819D02*
Y1190910D01*
X525881D01*
X404480Y1200040D02*
Y1248040D01*
X452480D01*
Y1200040D02*
Y1248040D01*
X404480Y1200040D02*
X452480D01*
M02*
