G04*
G04 #@! TF.GenerationSoftware,Altium Limited,Altium Designer,23.8.1 (32)*
G04*
G04 Layer_Color=16711935*
%FSLAX44Y44*%
%MOMM*%
G71*
G04*
G04 #@! TF.SameCoordinates,9B814528-EFA3-4082-B0EB-4300BE4F3D03*
G04*
G04*
G04 #@! TF.FilePolarity,Positive*
G04*
G01*
G75*
%ADD51C,0.1000*%
%ADD52R,0.3833X1.7000*%
D51*
X523100Y1200140D02*
Y1230640D01*
X505600Y1200140D02*
Y1230640D01*
X523100D01*
X505600Y1200140D02*
X523100D01*
X417550Y1171330D02*
X446050D01*
X417550Y1188330D02*
X446050D01*
X417550Y1171330D02*
Y1188330D01*
X446050Y1171330D02*
Y1188330D01*
X390830Y1207910D02*
Y1225410D01*
X381330Y1207910D02*
Y1225410D01*
Y1207910D02*
X390830D01*
X381330Y1225410D02*
X390830D01*
X312040Y1279970D02*
Y1287970D01*
Y1279970D02*
X328040D01*
Y1287970D01*
X312040D02*
X328040D01*
X293480Y1277700D02*
Y1287700D01*
X275480Y1277700D02*
Y1287700D01*
Y1277700D02*
X293480D01*
X275480Y1287700D02*
X293480D01*
X280623Y1167130D02*
Y1268730D01*
X255222D02*
X280623D01*
X255222Y1167130D02*
Y1268730D01*
Y1167130D02*
X280623D01*
D52*
X419468Y1179829D02*
D03*
M02*
