G04*
G04 #@! TF.GenerationSoftware,Altium Limited,Altium Designer,23.8.1 (32)*
G04*
G04 Layer_Color=32768*
%FSLAX44Y44*%
%MOMM*%
G71*
G04*
G04 #@! TF.SameCoordinates,9B814528-EFA3-4082-B0EB-4300BE4F3D03*
G04*
G04*
G04 #@! TF.FilePolarity,Positive*
G04*
G01*
G75*
%ADD51C,0.1000*%
%ADD53C,0.0500*%
D51*
X509350Y1215390D02*
X519350D01*
X514350Y1210390D02*
Y1220390D01*
X431800Y1174830D02*
Y1184830D01*
X426800Y1179830D02*
X436800D01*
X381330Y1216660D02*
X390830D01*
X386080Y1211910D02*
Y1221410D01*
X320040Y1281470D02*
Y1286470D01*
X317540Y1283970D02*
X322540D01*
X279480Y1282700D02*
X289480D01*
X284480Y1277700D02*
Y1287700D01*
X261700Y1217930D02*
X271700D01*
X266700Y1212930D02*
Y1222930D01*
D53*
X531850Y1198890D02*
Y1231890D01*
X496850Y1198890D02*
Y1231890D01*
X531850D01*
X496850Y1198890D02*
X531850D01*
X405800Y1169330D02*
X457800D01*
X405800Y1190330D02*
X457800D01*
X405800Y1169330D02*
Y1190330D01*
X457800Y1169330D02*
Y1190330D01*
X393580Y1201660D02*
Y1231660D01*
X378580Y1201660D02*
Y1231660D01*
Y1201660D02*
X393580D01*
X378580Y1231660D02*
X393580D01*
X308790Y1278970D02*
Y1288970D01*
Y1278970D02*
X331290D01*
Y1288970D01*
X308790D02*
X331290D01*
X301480Y1272200D02*
Y1293200D01*
X267480Y1272200D02*
Y1293200D01*
Y1272200D02*
X301480D01*
X267480Y1293200D02*
X301480D01*
X195530Y1164880D02*
X337868D01*
X195527D02*
Y1270980D01*
X337873Y1164880D02*
Y1270980D01*
X195530D02*
X337870D01*
M02*
