G04*
G04 #@! TF.GenerationSoftware,Altium Limited,Altium Designer,23.8.1 (32)*
G04*
G04 Layer_Color=128*
%FSLAX44Y44*%
%MOMM*%
G71*
G04*
G04 #@! TF.SameCoordinates,518562CC-B56E-4454-A7A6-5D8183682021*
G04*
G04*
G04 #@! TF.FilePolarity,Positive*
G04*
G01*
G75*
%ADD13C,0.1270*%
D13*
X666930Y1187930D02*
X677130D01*
X672030Y1182830D02*
Y1193030D01*
X666930Y1217930D02*
X677130D01*
X672030Y1212830D02*
Y1223030D01*
X666930Y1247930D02*
X677130D01*
X672030Y1242830D02*
Y1253030D01*
X696930Y1187930D02*
X707130D01*
X702030Y1182830D02*
Y1193030D01*
X696930Y1217930D02*
X707130D01*
X702030Y1212830D02*
Y1223030D01*
X696930Y1247930D02*
X707130D01*
X702030Y1242830D02*
Y1253030D01*
X730230Y1217930D02*
X760230D01*
X745230Y1202930D02*
Y1232930D01*
X379160Y1255430D02*
X392160D01*
X385660Y1248930D02*
Y1261930D01*
X617160Y1180430D02*
X630160D01*
X623660Y1173930D02*
Y1186930D01*
X547160Y1180430D02*
X560160D01*
X553660Y1173930D02*
Y1186930D01*
X379160Y1180430D02*
X392160D01*
X385660Y1173930D02*
Y1186930D01*
X582160Y1255430D02*
X595160D01*
X588660Y1248930D02*
Y1261930D01*
X481584Y1240790D02*
X488696D01*
X485140Y1237234D02*
Y1244346D01*
X543814Y1205230D02*
X550926D01*
X547370Y1201674D02*
Y1208786D01*
X560324Y1217930D02*
X567436D01*
X563880Y1214374D02*
Y1221486D01*
X487934Y1168400D02*
X495046D01*
X491490Y1164844D02*
Y1171956D01*
X344424Y1230630D02*
X351536D01*
X347980Y1227074D02*
Y1234186D01*
X344424Y1165860D02*
X351536D01*
X347980Y1162304D02*
Y1169416D01*
M02*
