G04*
G04 #@! TF.GenerationSoftware,Altium Limited,Altium Designer,23.8.1 (32)*
G04*
G04 Layer_Color=16711935*
%FSLAX44Y44*%
%MOMM*%
G71*
G04*
G04 #@! TF.SameCoordinates,518562CC-B56E-4454-A7A6-5D8183682021*
G04*
G04*
G04 #@! TF.FilePolarity,Positive*
G04*
G01*
G75*
%ADD12C,0.2000*%
G36*
X728226Y1224691D02*
X723226D01*
X723240Y1224677D01*
X723275Y1224642D01*
X723324Y1224580D01*
X723393Y1224490D01*
X723476Y1224386D01*
X723566Y1224254D01*
X723663Y1224108D01*
X723767Y1223942D01*
Y1223935D01*
X723781Y1223921D01*
X723795Y1223900D01*
X723809Y1223866D01*
X723837Y1223824D01*
X723858Y1223775D01*
X723920Y1223664D01*
X723982Y1223540D01*
X724052Y1223401D01*
X724114Y1223255D01*
X724170Y1223117D01*
X723414D01*
X723407Y1223124D01*
X723400Y1223144D01*
X723379Y1223179D01*
X723358Y1223228D01*
X723331Y1223283D01*
X723289Y1223352D01*
X723247Y1223429D01*
X723206Y1223505D01*
X723095Y1223685D01*
X722963Y1223879D01*
X722824Y1224081D01*
X722665Y1224268D01*
X722658Y1224275D01*
X722644Y1224288D01*
X722623Y1224316D01*
X722589Y1224351D01*
X722547Y1224386D01*
X722505Y1224434D01*
X722387Y1224538D01*
X722263Y1224656D01*
X722117Y1224774D01*
X721964Y1224878D01*
X721805Y1224968D01*
Y1225474D01*
X728226D01*
Y1224691D01*
D02*
G37*
G36*
X726388Y1221445D02*
X726465D01*
X726555Y1221439D01*
X726645Y1221425D01*
X726846Y1221404D01*
X727054Y1221369D01*
X727255Y1221321D01*
X727346Y1221286D01*
X727436Y1221251D01*
X727442D01*
X727456Y1221244D01*
X727477Y1221231D01*
X727505Y1221217D01*
X727588Y1221168D01*
X727685Y1221099D01*
X727789Y1221016D01*
X727900Y1220912D01*
X728004Y1220780D01*
X728101Y1220634D01*
Y1220627D01*
X728108Y1220613D01*
X728122Y1220593D01*
X728136Y1220558D01*
X728157Y1220523D01*
X728171Y1220475D01*
X728191Y1220419D01*
X728212Y1220357D01*
X728261Y1220211D01*
X728295Y1220045D01*
X728323Y1219858D01*
X728330Y1219650D01*
Y1219566D01*
X728323Y1219511D01*
X728316Y1219442D01*
X728302Y1219358D01*
X728288Y1219268D01*
X728268Y1219171D01*
X728247Y1219067D01*
X728212Y1218963D01*
X728178Y1218852D01*
X728129Y1218748D01*
X728074Y1218637D01*
X728011Y1218540D01*
X727935Y1218443D01*
X727852Y1218353D01*
X727845Y1218346D01*
X727831Y1218332D01*
X727803Y1218311D01*
X727762Y1218283D01*
X727713Y1218249D01*
X727651Y1218214D01*
X727574Y1218173D01*
X727491Y1218131D01*
X727394Y1218096D01*
X727290Y1218055D01*
X727172Y1218020D01*
X727040Y1217985D01*
X726902Y1217964D01*
X726749Y1217944D01*
X726590Y1217930D01*
X726416D01*
X726305Y1218693D01*
X726312D01*
X726340D01*
X726375Y1218700D01*
X726423D01*
X726486Y1218707D01*
X726555Y1218713D01*
X726708Y1218734D01*
X726874Y1218769D01*
X727040Y1218818D01*
X727117Y1218845D01*
X727193Y1218880D01*
X727255Y1218922D01*
X727311Y1218963D01*
X727325Y1218977D01*
X727352Y1219012D01*
X727394Y1219067D01*
X727442Y1219143D01*
X727491Y1219240D01*
X727533Y1219358D01*
X727560Y1219490D01*
X727574Y1219643D01*
Y1219698D01*
X727567Y1219754D01*
X727553Y1219830D01*
X727540Y1219920D01*
X727512Y1220010D01*
X727477Y1220100D01*
X727429Y1220190D01*
X727422Y1220204D01*
X727401Y1220232D01*
X727366Y1220267D01*
X727325Y1220322D01*
X727269Y1220371D01*
X727200Y1220426D01*
X727124Y1220475D01*
X727033Y1220516D01*
X727020Y1220523D01*
X726985Y1220530D01*
X726923Y1220544D01*
X726839Y1220565D01*
X726728Y1220579D01*
X726590Y1220593D01*
X726430Y1220600D01*
X726333Y1220607D01*
X726236D01*
X721826D01*
Y1221452D01*
X726187D01*
X726194D01*
X726222D01*
X726264D01*
X726319D01*
X726388Y1221445D01*
D02*
G37*
G36*
X507949Y1221737D02*
X510751Y1217930D01*
X509627D01*
X507353Y1221161D01*
X506306Y1220149D01*
Y1217930D01*
X505460D01*
Y1224330D01*
X506306D01*
Y1221161D01*
X509482Y1224330D01*
X510633D01*
X507949Y1221737D01*
D02*
G37*
G36*
X514100Y1217930D02*
X513316D01*
Y1222929D01*
X513302Y1222916D01*
X513268Y1222881D01*
X513205Y1222832D01*
X513115Y1222763D01*
X513011Y1222680D01*
X512879Y1222590D01*
X512734Y1222493D01*
X512567Y1222389D01*
X512561D01*
X512547Y1222375D01*
X512526Y1222361D01*
X512491Y1222347D01*
X512449Y1222319D01*
X512401Y1222298D01*
X512290Y1222236D01*
X512165Y1222174D01*
X512027Y1222104D01*
X511881Y1222042D01*
X511742Y1221986D01*
Y1222742D01*
X511749Y1222749D01*
X511770Y1222756D01*
X511805Y1222777D01*
X511853Y1222798D01*
X511909Y1222825D01*
X511978Y1222867D01*
X512054Y1222909D01*
X512131Y1222950D01*
X512311Y1223061D01*
X512505Y1223193D01*
X512706Y1223332D01*
X512893Y1223491D01*
X512900Y1223498D01*
X512914Y1223512D01*
X512942Y1223533D01*
X512976Y1223567D01*
X513011Y1223609D01*
X513060Y1223651D01*
X513164Y1223768D01*
X513282Y1223893D01*
X513400Y1224039D01*
X513503Y1224192D01*
X513594Y1224351D01*
X514100D01*
Y1217930D01*
D02*
G37*
D12*
X663180Y1149930D02*
X793480D01*
Y1285930D01*
X663180D02*
X793480D01*
X663180Y1149930D02*
Y1285930D01*
X359460Y1153430D02*
Y1282430D01*
Y1153430D02*
X651460D01*
Y1282430D01*
X359460D02*
X651460D01*
M02*
