G04*
G04 #@! TF.GenerationSoftware,Altium Limited,Altium Designer,23.8.1 (32)*
G04*
G04 Layer_Color=8388736*
%FSLAX44Y44*%
%MOMM*%
G71*
G04*
G04 #@! TF.SameCoordinates,518562CC-B56E-4454-A7A6-5D8183682021*
G04*
G04*
G04 #@! TF.FilePolarity,Negative*
G04*
G01*
G75*
%ADD18R,0.8032X1.0032*%
%ADD19R,1.1032X1.3032*%
%ADD20R,3.3832X1.4732*%
%ADD21C,1.5700*%
%ADD22R,1.5700X1.5700*%
%ADD23C,3.0000*%
%ADD24C,2.0000*%
%ADD25R,2.0000X2.0000*%
%ADD26C,1.4732*%
D18*
X327290Y1283970D02*
D03*
X312790D02*
D03*
D19*
X291980Y1282700D02*
D03*
X276980D02*
D03*
D20*
X320723Y1256030D02*
D03*
Y1230630D02*
D03*
Y1179830D02*
D03*
Y1205230D02*
D03*
D21*
X672030Y1187930D02*
D03*
Y1217930D02*
D03*
Y1247930D02*
D03*
X702030Y1187930D02*
D03*
Y1217930D02*
D03*
D22*
Y1247930D02*
D03*
D23*
X745230Y1217930D02*
D03*
D24*
X385660Y1255430D02*
D03*
X623660Y1180430D02*
D03*
X553660D02*
D03*
X588660Y1255430D02*
D03*
D25*
X385660Y1180430D02*
D03*
D26*
X485140Y1240790D02*
D03*
X547370Y1205230D02*
D03*
X563880Y1217930D02*
D03*
X491490Y1168400D02*
D03*
X347980Y1230630D02*
D03*
Y1165860D02*
D03*
M02*
